<svg xmlns="http://www.w3.org/2000/svg" viewBox="0 0 1754.16 1109.42"><defs><style>.cls-1{fill:#e9e5e3;}.cls-2{fill:#ffe783;}.cls-3{fill:#f6d44d;}</style></defs><title>about</title><g id="圖層_2" data-name="圖層 2"><g id="圖層_2-2" data-name="圖層 2"><path class="cls-1" d="M1080.05,586.37c-11.12,131.38-64.73,225.43-91,266-26.4,40.78-133.71,206.54-341,248-261.5,52.31-457.29-138.16-481-162S-28.34,736,4.05,481.37c30.82-242.25,232.13-441.66,473-476,174.61-24.9,371.68,36.69,493,187C1099.8,353.11,1083.8,542.09,1080.05,586.37Z"/><path class="cls-2" d="M1754.05,316.37c-2.44,62.38-46.34,99.92-55,107-8.46,6.92-39.54,31.61-85.77,33.5-70.32,2.89-115.41-49.43-123.23-58.5-9.13-10.6-47.6-55.24-41-118,6.1-57.93,48.87-114.75,111-129,76.09-17.46,133.52,39.85,143.8,50.11C1715.71,213.31,1756.5,254,1754.05,316.37Z"/><path class="cls-3" d="M1021.63,986.78A94.7,94.7,0,0,1,976,988.59c-7.72-1.6-39.1-8.13-57.52-37.08-23.23-36.51-5.88-77.3-3.66-82.29s19.18-41.43,59.62-51.44c38.47-9.53,80.44,9.25,99.75,43.7,14,25,16.22,58.4.58,85.57C1058.09,976.1,1028.55,984.75,1021.63,986.78Z"/></g></g></svg>