<svg xmlns="http://www.w3.org/2000/svg" viewBox="0 0 1235.59 900"><defs><style>.cls-1{fill:#ffe783;}.cls-2{fill:#e9e5e3;}.cls-3{fill:#ffea93;}</style></defs><title>contact1</title><g id="圖層_2" data-name="圖層 2"><g id="圖層_2-2" data-name="圖層 2"><path class="cls-1" d="M506.6,110.07a37.53,37.53,0,0,1,3.66-4.87c6.62-7.41,15.72-11.42,25.15-14.66a63.92,63.92,0,0,1,6.89-1.32,75.07,75.07,0,0,1,13.83-.54,45.8,45.8,0,0,1,5.51.87A55.4,55.4,0,0,1,567,91c2.53.92,5,2,7.52,3.12,17.16,6,37.83,25.4,54.68,29.9a25.47,25.47,0,0,0,7,.94c6.19-.56,12.86-3.89,13.33-10.51a25.68,25.68,0,0,0-1.67-6.68c-1.76-4.78-4.45-10-5.93-14.23s-1.76-7.46,1.3-8.3c5.83-.83,11.66,0,15.83,3.33C663.59,93,668.22,97.52,673,102c2.37,2.24,4.77,4.48,7.19,6.69,16.42,14.89,34.75,28.22,55.62,35.43a75,75,0,0,0,8.81,2.07,68.55,68.55,0,0,0,27.81-.95c8.33-2.08,3.36-15.16,3.4-26.21a22.76,22.76,0,0,1,.77-6.28c7.5-15.83,26.66-18.33,42.49-14.17,11.66,4.17,20.83,11.67,28.33,21.67,13.33,20,20.83,40,22,63.67.17,1.75.29,3.5.36,5.26a87.71,87.71,0,0,1-6.18,36.91c-.71,1.73-1.47,3.45-2.31,5.16a32.77,32.77,0,0,1-7.59,4.18c-23,6.46-42.16-15.2-62.16-23.53-7.49-3.34-19.16-4.17-21.66,1.66-3.12,8.44-.86,15.82,3.63,22.89a76.44,76.44,0,0,0,5.12,7c9.58,12.6,24.58,23.44,23.75,40.1-2.25,27.74-30.82,33.22-54,28.89-2.58-.48-5.1-1.08-7.5-1.78-22.61-2.95-41.77-13.78-60.87-25.81q-2.94-1.5-5.88-2.77c-2.61-1.13-5.22-2.15-7.8-3a24.83,24.83,0,0,0-14.71-2.2c-12.5,2.5-13.33,14.17-12.5,24.17.83,5.83-5.83,10-10.83,11.66-18.33,5.83-35.83-2.5-51-12.6-2.39-1.66-4.68-3.41-6.91-5.25-11.14-9.22-20.54-20.66-29.12-32.06-1.58-2.14-3.11-4.32-4.57-6.54a151.71,151.71,0,0,1-11.51-20.84c-1.25-2.74-2.43-5.52-3.56-8.36C518.23,219.12,515,211,512,202.79c-1-2.77-2-5.56-2.95-8.43-10-24.11-19.13-51.61-6-77.07A56.16,56.16,0,0,1,506.6,110.07Z"/><path class="cls-1" d="M458.2,623.23a17,17,0,0,1,11.67,11.67c.83,3.33,0,7.5,0,10.83-1.67,9.16-5,17.5-9.14,26-1.08,2.44-2.15,4.87-3.18,7.32-5.55,20.28-31.75,48.19-22.91,67.36A21.19,21.19,0,0,0,439,752.5c38.36,17.37,46.7,59,14,87.41q-2.35,3.27-4.88,6.36a146.23,146.23,0,0,1-40.83,34.41q-3.63,2.09-7.33,4c-32.62,17.72-75.11,23.55-105.38-1.23q-3-2.48-5.86-5.13a119.14,119.14,0,0,1-20.52-25.33q-1.71-2.84-3.26-5.77a58.65,58.65,0,0,1-6.2-24.17,54.77,54.77,0,0,1,.34-8,49.58,49.58,0,0,1,3.34-13.8c.85-2.2,1.81-4.37,2.85-6.52,12.09-19,17.09-42.32,5.68-62.9q-1.53-3.18-3.38-6.26A84.74,84.74,0,0,0,259,713.63a69.75,69.75,0,0,1-4.19-8.21,65.43,65.43,0,0,1-2.36-6.39q-1-3.24-1.68-6.54c-10.82-31.76,15.84-57.59,39.7-72.39a48.78,48.78,0,0,1,6.81-3.84c9.41-4.32,20.15-5.25,32.65-.53,13,4.69,19.85,15.89,24.56,28.37,1,2.53,1.89,5.11,2.79,7.72,1.81,7.24,3.48,15.57,9.31,18.9,14.16,7.09,24.37-.2,33.95-10.83,2.45-2.71,3.75-4.19,5.86-6.72,10.27-12.31,21-25.14,36-29.1A40.08,40.08,0,0,1,458.2,623.23Z"/><path class="cls-1" d="M834.52,524.29c34.37-7.78,122.58-7.78,146.57,6.49,43,25.56,4.54,52.53-23.34,55.13s-14.92,20.75,23.34,19.45,120.64-11.67,142.69,28.54-5.19,69.4-61.61,65.51-301.59,27.88-312.61-18.16,81.16-57.63,87.55-70c11.68-22.7-38.26-20.1-41.51-48.64C793.09,540.41,808.33,530.22,834.52,524.29Z"/><path class="cls-2" d="M339.38,50.53a4.34,4.34,0,0,0-1.71-.69l-.55,0c-4.45.52-5.18,5.74-7.45,8.61a2.72,2.72,0,0,0-.13.49,3.13,3.13,0,0,0,.84,2.65,8.75,8.75,0,0,0,10.26,2.08l.51-.25a10,10,0,0,0,2.31-1.71l.34-.23a6,6,0,0,0,1.41-1.39c.1-.15.2-.31.28-.45,2.11-3.49-1.27-6.32-3.93-7.72l-.44-.3c-.59-.38-1.19-.73-1.74-1.06Z"/><path class="cls-2" d="M297,87.59c-1-4.6-6.85-2.42-7.91.6,0,2.53-1.1,5.55.64,7.85,3,3.59,8.26,5.45,12.11,1.71,4.61-3.47-.1-9.36-4.84-10.16Z"/><path class="cls-2" d="M334.86,93.57a3.27,3.27,0,0,0-.06-1.34,2.5,2.5,0,0,0-.15-.38c-1.69-2.79-5.38-1.69-8-2.33a2.2,2.2,0,0,0-.37.06,2.28,2.28,0,0,0-1.51,1.36,6.39,6.39,0,0,0,1.74,7.45l.32.26a7.24,7.24,0,0,0,1.83,1l.26.16a4.3,4.3,0,0,0,1.35.51l.39,0c2.95.34,3.8-2.76,3.93-5l.06-.39c.08-.5.13-1,.18-1.48Z"/><path class="cls-2" d="M307.83,31.81c.16-6-10.78-7.71-12.42-3-2.57,4.34,1.07,11.92,7,12.95,6.27.1,4.5-6.82,5.42-9.92Z"/><path class="cls-2" d="M314.37,70.94c-1.11-1.58-2.53-3.47-3.77-3.91-4.77-.28-5.89,4.89-6.58,8.83a5,5,0,0,0,3.25,4.62c4.56.9,8-4.86,7.1-9.54Z"/><path class="cls-2" d="M376,93.7a4.31,4.31,0,0,0-1.71-.68,2.57,2.57,0,0,0-.55,0c-4.44.52-5.18,5.73-7.44,8.6a2.19,2.19,0,0,0-.14.5,3.13,3.13,0,0,0,.84,2.65,8.76,8.76,0,0,0,10.26,2.07l.51-.25a9.9,9.9,0,0,0,2.31-1.7l.35-.24a5.74,5.74,0,0,0,1.4-1.38,4.73,4.73,0,0,0,.28-.46c2.11-3.49-1.27-6.32-3.93-7.72l-.44-.29c-.59-.39-1.19-.74-1.74-1.07Z"/><path class="cls-2" d="M331.86,131.26c-.87-4-6-2.11-6.93.53,0,2.22-1,4.87.56,6.89,2.61,3.15,7.24,4.78,10.62,1.5,4.05-3-.09-8.21-4.25-8.92Z"/><path class="cls-2" d="M366.78,134a4.38,4.38,0,0,0-.09-1.83,3,3,0,0,0-.2-.52c-2.32-3.82-7.37-2.32-10.92-3.19a3,3,0,0,0-.51.08A3.13,3.13,0,0,0,353,130.4a8.77,8.77,0,0,0,2.38,10.2c.14.13.29.24.44.36a9.86,9.86,0,0,0,2.51,1.39l.36.22a5.77,5.77,0,0,0,1.84.7,5.15,5.15,0,0,0,.53.07c4.05.47,5.22-3.78,5.39-6.78,0-.18.06-.35.08-.53.11-.69.18-1.38.25-2Z"/><path class="cls-2" d="M356.87,84.29c.18-6.36-11.48-8.22-13.23-3.24-2.74,4.64,1.14,12.71,7.47,13.81,6.67.11,4.79-7.27,5.76-10.57Z"/><path class="cls-2" d="M348.92,109.08c-1.28-1.83-2.93-4-4.37-4.53-5.53-.33-6.82,5.67-7.62,10.23a5.75,5.75,0,0,0,3.77,5.35c5.28,1,9.23-5.63,8.22-11Z"/><path class="cls-2" d="M315.44,113.2c-1.42-2-3.25-4.46-4.84-5-6.12-.37-7.55,6.27-8.43,11.32a6.32,6.32,0,0,0,4.17,5.92c5.84,1.16,10.22-6.23,9.1-12.23Z"/><path class="cls-1" d="M9.11,488.26c-2.66,6.93-26.57,72.41,15.83,124.14,21.32,26,61.76,51.42,95.82,41.66,25.73-7.37,21.67-27.32,67.49-57.49,25.08-16.51,44.22-22.34,44.16-35-.06-11.43-15.73-13.91-24.16-35-6.83-17.06.61-22.51-5-32.49-11.69-20.8-47.42-3.34-95-21.66-35.34-13.62-42.62-33.67-62.49-29.17C24.56,448.08,14.14,475.19,9.11,488.26Z"/><path class="cls-1" d="M1188.07,81.25c3.62,26.94-16.37,44.91-4.16,65.4,12.32,20.68,40.11,14.84,49.15,35,7.06,15.73-1.81,37.22-12.49,49.16-35.48,39.63-137,25.22-162.48-21.66-17.15-31.5,4.55-69.33-11.66-78.32-16.59-9.2-41.58,29.15-73.32,21.66-19.58-4.62-35.71-25.26-38.33-44.16C928.46,62.64,997.29-.94,1068.93,0,1124.07.74,1182.49,39.74,1188.07,81.25Z"/><path class="cls-3" d="M823,727.44a.31.31,0,0,0-.39-.43l-.14.7Z"/><path class="cls-3" d="M820.34,726.63c-.36.39-.76,1-.39,1.58.32-.69.46-.45.78-1.27a.43.43,0,0,1,.64.35c.1-.18.59.05.71-.39a1.2,1.2,0,0,0-1.69.17C820.23,727,820.33,726.76,820.34,726.63Z"/><path class="cls-3" d="M785.32,726.45l.21.1A.46.46,0,0,0,785.32,726.45Z"/><path class="cls-3" d="M764.3,721.47c.16,0,.24,0,.27-.06C764.41,721.4,764.28,721.4,764.3,721.47Z"/><path class="cls-3" d="M761.13,719.55l.18.11C761.26,719.58,761.19,719.52,761.13,719.55Z"/><path class="cls-3" d="M785.32,726.45l-.55-.28C784.7,726.37,785,726.37,785.32,726.45Z"/><path class="cls-3" d="M815.73,728.93a.93.93,0,0,0,.3-.22l-.29.11A.41.41,0,0,0,815.73,728.93Z"/><path class="cls-3" d="M794.86,726.69H795a1.28,1.28,0,0,0,.16-.26Z"/><path class="cls-3" d="M802.15,726.66c-.16,0-.21.54-.27.78a.59.59,0,0,1,.36-.39A1.12,1.12,0,0,0,802.15,726.66Z"/><path class="cls-3" d="M813.81,726.86l.19-.1Z"/><path class="cls-3" d="M789.66,726.23a.83.83,0,0,0,0-.2A.29.29,0,0,0,789.66,726.23Z"/><path class="cls-3" d="M801.71,609.71v.1S801.77,609.72,801.71,609.71Z"/><path class="cls-3" d="M810.21,613l-.12,0a1.88,1.88,0,0,0-.06.31Z"/><path class="cls-3" d="M755.46,716.16l0,0C755.66,716.2,755.57,716.17,755.46,716.16Z"/><path class="cls-3" d="M724.81,669.36c-.55.64-.55-1.17-1.19-.19C723.85,669.1,724.42,670.18,724.81,669.36Z"/><path class="cls-3" d="M815.53,728.88l-.3,0A1,1,0,0,0,815.53,728.88Z"/><path class="cls-3" d="M723.62,669.17h0l-.06.1Z"/><path class="cls-3" d="M742.44,708.26a.59.59,0,0,0,0,.29A.51.51,0,0,0,742.44,708.26Z"/><path class="cls-3" d="M751.47,715.25l-.21-.21A1.37,1.37,0,0,0,751.47,715.25Z"/><path class="cls-3" d="M737.51,705c-.08-.14-.07-.23-.27-.32a.17.17,0,0,0,0,.1C737.34,704.75,737.44,704.8,737.51,705Z"/><path class="cls-3" d="M733.39,700.44a.76.76,0,0,0,0,.15l.15.13Z"/><path class="cls-3" d="M782.11,611.48a1.79,1.79,0,0,1,.38.45C782.32,611.55,783.24,611.26,782.11,611.48Z"/><path class="cls-3" d="M815.69,728.61a.31.31,0,0,1-.16.27l.21-.06A.28.28,0,0,0,815.69,728.61Z"/><path class="cls-3" d="M734.2,708c-.23-.26-.45-.55-.68-.82A5.36,5.36,0,0,0,734.2,708Z"/><path class="cls-3" d="M740,630.42l.14-.21A.28.28,0,0,0,740,630.42Z"/><path class="cls-3" d="M731.34,704.87a1.48,1.48,0,0,0-.09-.71.6.6,0,0,0-.19,0Z"/><path class="cls-3" d="M782.49,611.93Z"/><path class="cls-3" d="M789,609.69c-1,.1-.38.77-.54,1.22-1.14.34-.6-.48-1-.81-.71.28-1.18,1-1.72,1.06-.06-.12-.17-.15-.07-.31-.68.68-2.27.38-3,1.25a.46.46,0,0,1-.15-.17,2.25,2.25,0,0,1,.31,1c-.43.08-.72.58-1,.14.26,0,.25-.22.35-.39l-.41.28c-.53-.61.56-.35.48-.85-.85.37-1.75,1.16-2.46,1.09-.27-.64,1.53-.54.52-.95l1.08,0c-1-.9.65-.06-.29-1-1.42.09-1.48.65-2.89.73-.23.43.22.53,0,1-1.77,1.1-1.91-1.3-3.12-.08-.26.53-.19,1.38-1.31,1.21l.15-.84c-1.33.3-.45,1.28-2,1.18.16-.36,1-.54.74-.57-1.06-.33-.51.6-1.19.79l-.33-.61c-1.37.48-2.72,1.5-4.18,2.12,0-.21.2-.5-.22-.58a15.59,15.59,0,0,1-2.95,1.15c-1,.3-2.12.46-3.08.7l-.45.85c-.16.07-.4-.11-.27-.29-.79.12.11.36-.12.72s-.66-.07-.49-.34a14.25,14.25,0,0,1-2.07,1.67,5.16,5.16,0,0,1-2.43,1l.16-.28c-1.09.31-.53,1.63-1.68,1.63l.12-.19c-2.17.92-4.16,2.69-6.16,2.91.15.88-2.21,1-1.68,2-1.45.29-1.26-.12-3.06.72-.45.27-.19,1-.61,1.53l-.4-.47-.27,1-.83-.29-.37.51c.21-.13.57-.11.66,0-.55.81-2,1.16-2.26.94l-1.28,1.91c-.15-.22.07-.53.18-.85-.44,1.27-.61-.32-1,.87.2,0,.2.31.27.42a4.09,4.09,0,0,0-2,1.81l-.19-.42a35,35,0,0,0-3.3,4.3c.57-.42,1.06.15.78.62l-.65-.21c.12.52.53-.32.51.56-.46.52-.87-.05-.81-.51l-.31.83c-.18-.07-.15-.3-.32-.48.13.52-1.41.83-1.09,1.66l-.19-.07a36.12,36.12,0,0,0-2,3.78c.48.3.09.76.27,1.37a13.35,13.35,0,0,0-2.13,3c-.13,1,.32.44.45,1-.49-.15-1,1.09-1.05.31a15.86,15.86,0,0,0-1,4c.27-.14.44-.34.56-.16,0,.37-.47.71-.69.58v-.11a7.67,7.67,0,0,1-1.43,3.43,10.89,10.89,0,0,0-.85,1.66,2.56,2.56,0,0,0-.06,1.59l0-.11.15,1.95c-.24.84-.29-.58-.72,0a5,5,0,0,1-.06,2.62,4.17,4.17,0,0,0-.13,2.31c-.79.59-.91,1.76-.83,3a6.69,6.69,0,0,1-.22,3.41l.35-.12c.37.45-.16.57-.22.91.27-.06.28-.51.5-.24a21.89,21.89,0,0,1,.33,2.93c0,1,.19,2,.23,3a41.52,41.52,0,0,0,.73,6.08c.39,1.44,2,.2,1.83,2.2l-.79-.26c1.68,2.5,2.36,5.58,4.36,7.77-.22-.07-.39,0-.52-.22-.13.78,1.18,1.92,1.5,1.71.21.4-.24.28-.25.62.08.69,1.34.94,1.15,1.46,0,.09-.22,0-.32-.11.42.18,1.06,1.53,1.27.89.42,1,1.45,1.47,1.75,2.32.83,0,1,1.61,1.75,1.14-.73.55.76,1.86,1.52,2.05-.36,0,.23.6-.23.69.57.52,1.2.89,1.42.46.29,1.8,2.69,1.23,2.39,2.81l5.73,3c-.59.72-1.88-1.22-2.37-.4,1.8.85,3.14.81,4.62,2,.35.37-.44.19-.67.23,1.82.72,3.13,2,4.84,2.42,0,.07-.25.06-.44,0,.31.15.61.5.78.13l-.34-.07c-.16-.77,1.76-.44,2-.68-1.07.75,1.31,1-.19,1.92.23,0,.57,0,.66-.26.25.22.27.42-.18.53,1.18.38,1-.21,2,.29-.1.18-.33.15-.54.3a2.56,2.56,0,0,1,2.1.36c-.1.08-.07.27-.32.15,1.47.63,2.86.17,4.32,1.15-.79.62.44.48.26,1.21l1,.12-.23-.47c.77.3,1.62,0,2.21.48l-.68.09,1.5.35-.73-.54c.89-.1.21-.92,1.16-.39-.23,0,.76.25,1,.79h0a1.66,1.66,0,0,1,1.43.1c.08.27-.35.76-.29.94.54-.48,1.87.34,2.52-.18a.69.69,0,0,0-.27.57l.44-.41c.33.25.36.34.22.63,1.07.36-.11-1,1.08-.29-.11,0-.08.1-.31.13,1.25.52,2.57.29,3.71.8.19.81-1.09-.06-.83.65,1.78.26,3.79-.08,5.44.38l-.3-.13c.43-1,1.16.75,2.11.39-.22,0-.37.54-.3.43,1.14.36,2.43.13,4.23,0l-.25.24a15.43,15.43,0,0,0,2.52.57c.25-.25.67-.16.45-.58a3.82,3.82,0,0,0,3.28.63,3.89,3.89,0,0,1,3.11.34c-.25,0-.6.2-.4.21.58,0,1.17-.11,1.75-.17-.12-.47-.22-.29-.56-.66a1.54,1.54,0,0,1,1.15-.44c-.79.27,0,.74.31,1,0-.15.07-.3,0-.44.88.85.17-.92,1.39-.34l-.07.25c.47-.12.9-.44,1.39-.37.21.54-.49.25-.53.69.71,0,1.39-1,2-.46-.29.14-.72.14-1,.29a1.58,1.58,0,0,0,1.29.57h0l1.19.26-.3-.16c.86-1.42,1.79-.27,2.94-1.23-1.12.91-.17.51-.24,1.11.31.16.78.33.65.5.55-.51,1,.34,1.72-.41,0,.19.61,0,.51.49.72-.19-.2-.33-.15-.58,1.08-.71,2.7.62,4.25-.41,1.36-.51,1.54-1.2,2.78-1.65.47.26-.27.74-.27.74a2.32,2.32,0,0,0,1.88-.2c-.11.19,0,.31.27.5.52-.12.26-.75,1-.56a2.79,2.79,0,0,1-.42.85c.6-.26,1.16-.71,1.78-1,.22.31-.32.56-.51.81.7-.24,1.83-.55,2-1.13l-.49-.12c.26-.07.21.44,0,.57a.58.58,0,0,1-1-.25l.44-.19c-.63-1.07-1.8.43-2.74.49l.28-.88-.85.82c-.23-.19-.42-.64,0-.82-.7-.32-.54.36-1.16,0-.07-.07,0-.11,0-.15l-.62.32c.11-.19-.17-.58.24-.5-1.2-.36-1.79.82-2.28.24l.09-.07c-1.57.43-.1.63-1.24,1.44l-.93-1.44-.11.62c-.17,0-.5,0-.46-.28-.58.47.13.26-.2.68-.83-.48-2.19.4-2.42-.57-.26.48.78.32,0,.69-.3-1-1,.22-1.73-.22.2-.55.9-.3.16-.75-.41.94-1.42-.15-2,0,0,.73-1.33.34-2.36.58.07-.24-1.93-.42-2.87-.69l0-.12c-.2.74-1.19.55-1.91.68a.81.81,0,0,1,.57-.79l-.67,0a1.06,1.06,0,0,1-.82.41l.19-.54c-.89,0-1.83.54-3,.11-.1.51.83,1.48-.43,1.75,0-.28,0-.76.3-.85-.11,0-.4.21-.6.07l.52-.43c-.51-.24-.3.38-.72.3,0-.4-.29-.31-.2-.62.11,0,.35.2.52.05a1.87,1.87,0,0,1-1.17-.71c0,.23,0,.53-.4.56-.9-.06-.26-.51-.76-.75-.24.25-.78-.08-.86.5-.26,0-.28-.31-.36-.48-.49.2-2.15-.17-1.71.51l.11,0-.08,0h0c-1.59.39-3.09-.74-4.61-.74l0-.2c-.93.09-2-.21-2.71.09-.26,0-.55-.46-.39-.67a2.2,2.2,0,0,1-1.74-.31c.75-.2-.17-.35.75-.11-.84-.34-1-.69-2-.37.43-.42-.51-.77-1-.71l.53.48a4.77,4.77,0,0,1-1.29-.3l.38-.6c-1.6-1.2-3.55.57-4.55-1.1-.58.33.87.57.32,1-.8-.3-1.38-1.45-1.63-1.53-1-.66-1.29.64-2.36.05.08.27,0,.93-.9.86-.78-.34-.66-1.27-.11-1.28.2,0,.26.14.23.22.28,0,.65,0,.42-.34l-.18.2c-.32-.35-1.4-.7-1-1-.66,0-.38.28,0,.54-.89-.66-1.57-.55-2.5-1.17.11.19.16.51,0,.44-1.38-.86-.82.16-1.88-.16-.43-.58.54-.7-.58-.86-.51-.5.13-.63.44-.7-1.09,0-1.55-1-2-1.35l.55,0a2,2,0,0,1-.79-.25l.06.56c-.24-.21-.47-.32-.38-.5-.41.14-.13.82-.88.91-.26-.4-1.24-.34-1.07-1,1,.79.17-.62,1.18-.21a1.23,1.23,0,0,1-.68-.36c0-.09.1-.1.19-.09-.81-1.08-.82.37-2-.26.32-.23.07-.74-.15-.78.45.27-.07.64-.63.64-.6-.65-.89-.27-1.26-.51l.37.36c-.32.22-.66,0-1.22-.22.1-.26.55.1.43-.11-.88.22-.92-1.29-1.91-1.39-.23-.42.32-.59.09-.91-1.08-.14-.65-1-1.73-1.22,0,.56.1.5-.77.48.54.23,1.1.43,1.64.64h-1.31c.44.28,1.09.33,1.31.57-.65,0-.55,0-.54.44-.23-1-1.44-.4-1.86-1.28l.67-1c-.72-1.1-2.14-.74-3.27-1.92l.3.47c-.46.25-.84-.54-1.36-.72.28-.28.12-.59.1-.92-.16.24-.91-.73-1.51-.22l-.21-.87c-.82-1-1.87-.09-2.69-1.07.57,0,.35-.64,1.16-.3-.3-.29-.52-.59-.71-.4,0-.34-1.2-.4-1.21-.93-.25,0-.58.24-.88-.12,0-.09.14-.13.14-.13s-.7-.35-.73.25c0-.91-.65-1.51-1.24-2.16s-1.21-1.25-1.15-2a25.94,25.94,0,0,1-1.91-2.08c.13,0,.16-.11.22,0-.36-1.12-1.33.06-1.7-1.26.18-.9.66.39.64-.09,1-.85-1-1.19-.77-2.35l.16.15c.08-.79-1.19-1.16-1.63-2.16a.23.23,0,0,0,.18-.08c-.91-.36-1.68-1.57-2.29-2.46.61.11.44.33.84,0-.25-.4-.73.46-1.21-.37.15-.39.15-1.12.63-1.39l.33.81c.51-.68-.41-1-.45-1.53l.32,0c-.56-1.2-1.33-1-1.63-2.41l-.19.21c-1-.56.25-.76-.52-1.38l.71-.42c-.16-.23-.47-.62-.78-1.08a9,9,0,0,1-.69-1.44c.68.42,1.11,1.45,1.66,2-.17-.48-.41-1.68-.84-1.87.11.19.34.41.26.63a3.26,3.26,0,0,1-1.32-2.31c.79,0,.7-.69.72-1.48s-.07-1.69.49-2.09a5,5,0,0,1-.19-2.7c.14-.92.26-1.87.33-2.91-1.24.67,0-.61-1.21-.57,0-.5,0-.69.08-.73.28-.48.54-.95.85-1.41.4-.31.2.49.5.48.22-1,.57-.38,1-1-.46.09-.57-.44-.31-1L725,667c-.4-1.57,1.17-1.11.82-2.68l.28.54c0-.79.57-2.74-.16-3.71.17-.1.55-.19.54.16a12.23,12.23,0,0,0,.43-2.92,4.61,4.61,0,0,1,.8-2.5l.23.23c0-.35-.3-.75.14-1.05.1.06.22.24.3.09s-.15-1,.18-1.41l.17.5a3.84,3.84,0,0,0,.62-2.19,6.73,6.73,0,0,1,.21-2.17c.79.39,1.67-.75,2.15-1.29l.09.08c1.09-1.77,1.11-3.44,1.94-5.24,1.45-.46,2.74-3.07,4.43-4.15-.32.11-.49-.49-.32-.81.44-.21.41-1.34,1-.73l-.12.1c.8.29,1.3-.5,1.82-1l-.65-.84c1.23-.11,2-1.05,2.8-1.91s1.48-1.65,2.31-1.43c.21-.49.67-.83.88-1.32l.31.48a17.76,17.76,0,0,0,2.93-1.92l0,.52c.76-.45.07-2,.77-2.46l.66.59c1.34-.85,3.1-1,4.1-2.44a.41.41,0,0,1-.09.51c.67-.37,2.81-.87,2-1.76.38.66,1.47-.69,2.09-1.38l.13.56c.32-1,.25-1.17,1.09-1.77.25,0,.38.32,0,.32.85-.07.34-.74,1.35-.87l-.18.47c.77-.3.63-.45.87-1s1.49-.53,1.8-.09a.92.92,0,0,1,.76-.92c.13.16,0,.33,0,.42,1.41-.15,1.67-1.37,2.74-1.2.09.17.18.24.27.26a14.41,14.41,0,0,1-1.79.61c.19.48,1,.24.65,1.16.49-.63,1.33-1.85,2.23-1.88a.48.48,0,0,1,.17.13l-.07.08a.75.75,0,0,0,.48-.25,2.37,2.37,0,0,0,.72-.09c.23.37,1-.1,1.44-.22-.21-.53.37-.61-.28-.9.08,0-.06.09-.33.21a.52.52,0,0,0-.16.12v-.06l-1,.39c.24-.38.51-.73,1.07-.59a7.64,7.64,0,0,1,.31-1.06c.82.58,2.05.66,2.34,1.08.6-.33,1.33-.62,2-.94a2.89,2.89,0,0,0,1.54-1.32c.35-.22.5.19.68.32-.19.16-.45.2-.53.38.68-.44,2.17-.64,2.2-1.38,1,.13-.39.77.89.39l-.13.26c2.74.63,3.85-2.66,7-1.56-.21-.07-.31-.1-.37-.22,3.34.23,6.75-1.33,10.07-.4.93.19,1-.28,1.58-.65l.21.6,1-.72c1.39-.49,2.37,1.48,4.12.58l-.21-.42c.62.1,2-.17,1.87.3.06-.08.22-.42.45-.19v.32l1.56-.45c1.18.31-.26,1.22,1.45,1.42.65-.07,1.91-.76,1.69-1-.26,0-.65-.26-.64-.57l.61-.12c.19-.92.75-1.83-.68-2.6l-1.08.48-.3-.47.87,0c-.46-.46-.8-.12-1.17.12a.83.83,0,0,0-.41-.53l-1.07.83c-.1-.37.5-.69-.18-.94-.5.39.42.85-.39,1.07-.47-.45-.31-.79-.91-.45-.07-.24.06-.39.3-.49-.54.27-1.39.08-1.67.56-.5-.55-1.75.09-1.69-.79a2.77,2.77,0,0,1-1.4.72c.88-1-1.79-.07-1.57-1.19-.63,1-2.34.44-3.46,1,.06-.08.18-.23.28-.19a3.34,3.34,0,0,1-1.27-.48c0,.79-1,1-1.54,1.53-.84-.7.41-1,.12-1.66.08.62-1.33.75-1,1.25-.64-.42-.54-.18-.9-.81,0,1-.55.22-1,.86-.91-.4-.31-.91-1.24-.5C788.22,610.13,789,609.69,789,609.69Zm-22,6.62h0l.44-.18Zm-1.8.67a7.82,7.82,0,0,0,.78-.29c.13.16.13.37,0,.43C766.05,617,765.6,617,765.27,617Zm5,2.35c-.24.17-.37.1-.45,0a2.79,2.79,0,0,0,.46-.23V619A.74.74,0,0,1,770.3,619.33Z"/><path class="cls-3" d="M770.57,618.46s0-.05.1-.08l-.2-.06c0,.07,0,.14-.05.2Z"/><path class="cls-3" d="M785.57,726.57l0,0s.06.05.07.09A.36.36,0,0,1,785.57,726.57Z"/><polygon class="cls-3" points="741.54 628.83 741.63 628.94 741.68 628.73 741.54 628.83"/><path class="cls-3" d="M795.76,729.28a.35.35,0,0,0,.13.15S795.83,729.34,795.76,729.28Z"/><path class="cls-3" d="M800.28,729.47l.64.19A3.42,3.42,0,0,0,800.28,729.47Z"/><path class="cls-3" d="M803.76,729.69a1,1,0,0,0,.06-.25h0Z"/><path class="cls-3" d="M749.81,718.63l-.13,0C749.36,718.53,749.56,718.6,749.81,718.63Z"/><path class="cls-3" d="M765.52,724.09a3.17,3.17,0,0,1-.59.1C765.2,724.32,765.42,724.39,765.52,724.09Z"/><path class="cls-3" d="M734.28,708h0l-.09-.08Z"/><path class="cls-3" d="M764.2,724a1,1,0,0,0,.73.24A1.7,1.7,0,0,0,764.2,724Z"/><path class="cls-3" d="M818.82,728.56H819a.33.33,0,0,1,0-.1Z"/><path class="cls-3" d="M819,728.46l.18-.09C819.08,728.38,819,728.4,819,728.46Z"/><path class="cls-3" d="M819.53,728.16l-.36.21C819.3,728.35,819.47,728.34,819.53,728.16Z"/><path class="cls-3" d="M814.21,728.9l0,.21A.32.32,0,0,0,814.21,728.9Z"/><path class="cls-3" d="M812.83,729.11c.33,0,.88.34,1.33.17l0-.17C814,729.43,813.1,728.73,812.83,729.11Z"/><path class="cls-3" d="M806.85,727.08c.39,0,.77,0,1.16.08-.22-.2-.5-.47,0-.56C806.54,726.05,808.36,727.07,806.85,727.08Z"/><path class="cls-3" d="M803.27,726.92c.62-.11,0-.32,0-.44C802.9,726.69,802.81,726.74,803.27,726.92Z"/><path class="cls-3" d="M777.7,724.87l.16-.49C777.38,724.36,777.82,724.57,777.7,724.87Z"/><polygon class="cls-3" points="772.29 726.4 772.67 726.81 773 726.41 772.29 726.4"/><polygon class="cls-3" points="770.31 722.16 770.52 722.14 769.72 722.13 770.31 722.16"/><path class="cls-3" d="M734.48,701l-.39.51C734.38,701.63,735,701.22,734.48,701Z"/><path class="cls-3" d="M725.49,685.37a.69.69,0,0,0-.07-1C725.49,684.73,725.36,685.19,725.49,685.37Z"/><polygon class="cls-3" points="741.02 635.91 740.9 636.31 741.28 635.72 741.02 635.91"/></g></g></svg>