<svg xmlns="http://www.w3.org/2000/svg" viewBox="0 0 1617.72 527.41"><defs><style>.cls-1{fill:#cccac9;}.cls-2{fill:#e9e5e3;}.cls-3{fill:none;stroke:#f6d44d;stroke-miterlimit:10;stroke-width:5px;}</style></defs><title>contact3</title><g id="圖層_2" data-name="圖層 2"><g id="圖層_2-2" data-name="圖層 2"><path class="cls-1" d="M685.44,80.77c14.42-32.83,53.46-125.39,132.47-55,91.65,81.65,35.83,244.12-17.49,193.3-68.25-65.05-170.81,16.66-210-71.65C552.25,61.27,676,102.27,685.44,80.77Z"/><path class="cls-2" d="M10.13,152.35C32,107,77.66,62,167.7,138.65S264,116.28,295.15,119.93s110.44,111.86,27.48,177.15c-83.73,65.88-222,60.72-270,21C2.26,276.41-12.07,198.48,10.13,152.35Z"/><path class="cls-3" d="M1398.49,341.73a121,121,0,0,1,68.36-20.25c4-.26,8.17-.53,12.37-.77,16.79-.94,34.65-1.38,51.66.35,5.11.54,10.15,1.27,15.06,2.25,38.53,6.07,77.82,44,67.65,84.18-6,23.57-30,33.27-50.38,44.36-12,6.47-19.87,16.64-28.73,26.22-3.2,3.46-6.47,6.8-9.79,10.24a123.09,123.09,0,0,1-9.85,9.6c-3.55,3.11-7.31,6.14-11.25,9a86.78,86.78,0,0,1-10.61,7.2,76.14,76.14,0,0,1-11.57,5.43c-22.64,7.22-59.15,10.92-71.17-13.58-2.77-4.62,0-11.09-.46-17.09-.46-3.7-2.77-7.86-5.55-7.86a75.92,75.92,0,0,1-58.33-34.54,65.86,65.86,0,0,1-7.26-15.72c-11.59-34.78,22.15-59.73,44.77-80C1388.33,347.45,1393.39,344.47,1398.49,341.73Z"/></g></g></svg>