<svg xmlns="http://www.w3.org/2000/svg" viewBox="0 0 811 267.02"><defs><style>.cls-1{fill:#ffe783;}.cls-2{fill:#fff;}.cls-3{fill:#e9e5e3;}</style></defs><title>hero_no bg</title><g id="圖層_2" data-name="圖層 2"><g id="圖層_2-2" data-name="圖層 2"><rect class="cls-1" y="113.02" width="420" height="154"/><path class="cls-1" d="M774.8,112.12c2.76,16.54-12.48,27.57-3.18,40.14s30.57,9.11,37.46,21.48c5.37,9.65-1.38,22.84-9.53,30.17-27,24.32-104.33,15.47-123.78-13.3-13.07-19.33,3.46-42.55-8.89-48.07-12.63-5.64-31.67,17.9-55.86,13.3-14.91-2.84-27.21-15.51-29.2-27.1C577,100.7,629.45,61.68,684,62.26,726,62.71,770.54,86.64,774.8,112.12Z"/><path class="cls-2" d="M556.18,196c4.82-22,17.45-46.09,29.66-66.79,5.32-9,12.36-19.34,18.27-28.41a20.72,20.72,0,0,0,3.34-14.56c-1.12-8-2.1-16.23-5-23.9-1.57-4.18-3.54-5.18-7.28-1.71a147.9,147.9,0,0,1-25.11,18.25c-5.45,3.15-11.52,3.69-15-1.21-3-4.36-4.62-8.61-3-13.85,6.08-19.18,21-28.81,41-27.74a11.13,11.13,0,0,0,5.17-1.18c3.69-1.42,7.18-3.13,11.08-3.07,7,.1,11,2,13.72,8.6s3.3,14,4.16,21c.19,1.56-.59,3.94,1.25,4.48,2.41.7,3.09-1.07,4.81-3.25C646.18,46.32,661.52,28.92,676.83,16c7.47-6.3,12.73-10.89,20.72-9.88,5,.63,4.61,2.22,4.51,7-.2,9.12-8.51,14.72-16.44,20.17C666.52,46.41,649,66.65,635.33,83.8c-6.7,8.43-8.53,14.11-10.13,22.31-6.29,32.19-11.74,63.87-21.58,94.7-5,15.66-16.45,23.29-30.26,30.21-7.28,3.65-15.06-.69-16.93-8.74C554,211.89,553.38,208.76,556.18,196Zm50.38-40c1.9-6.81,2-13.67,3-20.68.16-1.07.77-2.21-.07-3.24-.26.95-.54,1.92-.81,2.88-.39,1.34-.79,2.69-1.18,4a32,32,0,0,0-.13-4.16c-.27-2.06,1-5.06-1.58-5.86-2.9-.91-3.93,2.16-5.1,4.17-3.22,5.6-6.48,10.81-9.27,16.64-7.63,15.91-13,31.27-13.47,49.11-.05,2-.32,4.51,1.84,5.42s3.5-1.45,4.64-3A133.79,133.79,0,0,0,606.56,156Zm6-18.06a2.32,2.32,0,0,0,.38.07c-1.2,7.08-2.35,14-3.52,21.19-.15.91-.56,2,.36,2.72a14,14,0,0,0,1.33-2.58,224.63,224.63,0,0,0,6.71-41.7c.06-.82.57-2.26-1-2.21-.23,0-.73,1.31-.85,2C614.93,124.1,613.67,131.15,612.57,137.92Z"/><path class="cls-2" d="M227.85,157.75c.85-5.85,2.09-11.71,2.89-17.61.24-1.72.91-4.1-1.3-4.73-1.78-.51-2.44,1.75-3.28,3.05-9,14-18.19,27.67-28.74,40.71-11.27,13.94-24,25.46-39.62,34.38a14.87,14.87,0,0,1-1.68.89c-22.09,9.05-34,2.5-39.17-20.22-6.13-27,.11-51.48,10.9-76,5.59-12.71,10.45-25.79,19.86-36.41,8.12-9.17,17.39-16.75,29.94-18.86s23.44,4,28.13,16c.66,1.68,1.22,3.43-.94,4.65a4.78,4.78,0,0,1-4.89.22c-2.66-1.32-5.44-3-8.36-3.85-11.25-3.07-21.23-2.51-30.11,5.71-26,24.07-37,54.66-35.38,89.81.32,6.71,2.31,13.61,7.19,18.42,7,6.84,13.51,8.68,22.67,4.32,12.79-6.1,23.38-15.58,33-26.07a322.48,322.48,0,0,0,35.93-47.36c7.11-11.32,11.21-24,14.81-36.85,2.57-9.25,7.27-14.13,17.2-14.77,4-.25,5.69,1.65,5.49,6.22-.33,7.4-3.53,14.8-6.15,22-7.43,20.51-12.63,41.62-13.69,63.41-.21,4.34-2,10.1,2.82,12.17,3.39,1.44,5.57-4.3,8.32-6.91,11.45-10.88,23.14-15.87,39-10.58,3.22,1.08,4.86-.45,6.79-2.52,5.32-5.67,10.31-11.11,16.46-15.72,2.09-1.57,4.23-2.71,6.6-1.52s2.71,3.36,2.48,5.76c-1.42,14.8-7.85,24.53-19.67,33.26-1.86,1.37-3.84,2.47-5.6,3.73-6.61,4.74-10.78,4.88-17.92,1.07-1.54-.82-3.05-2-4.75-2.82-4.38-2.13-7.5-1.92-10.46,2.28-6,8.45-13.86,13.95-22.7,19.3-5.84,3.53-12.28,1.33-15.29-4.82a33.78,33.78,0,0,1-3.51-17.22C225.56,172.85,226.76,165.22,227.85,157.75Zm-108.35-.64c-1,6.79-1.78,13.49-1.35,20.37a32.38,32.38,0,0,0,6.62,18.06c.56.76,1.19,1.89,2.35,1.11.24-.17,0-1.45-.3-2.13-4.53-11.94-4.74-23.92-4.59-36.71,0-4,1.88-7.66,0-11.55C120.25,149.71,120.34,153.3,119.5,157.11Z"/><path class="cls-2" d="M409.9,84.38c5.7,2,9.43,9.69,5,14.37-15.41,8.45-23.3,22.35-32.57,36.68,4,.41,6-1.93,9-4.18,9-11.49,14.17-23.45,28.88-28.35a25.82,25.82,0,0,1,6.77-1c6-.29,11.15,2.28,16,5.28s6.69,2.94,10.33-1.92A49.65,49.65,0,0,1,474,89c3.46-1.45,7.56-3.11,11-2.28,8.92,2.17,15.3-2.12,22.45-5.81,10.2-5.27,20.25-9.51,31.14-10.77,8.2-1,10.3,2.53,9.81,9.71,0,.55-.32,1.54-.63,1.61-6.22,1.28-7.82,6.17-14.87,6.45-11.67.46-21.08,5.84-29.14,14.58-5.43,5.89-12,8.44-18.06,13.81-2.53,2.24-8.09-.82-9.32-4-.64-1.64-.78-4-3.09-3.92s-3,2.23-3.91,4a53.94,53.94,0,0,0-3.16,7.18c-1,2.55-1.16,4.72-1.89,7.51-1,3.71-.61,5.58-5.32,7.39-9.57,3.68-12.91,13.07-23.65,3.62a42.59,42.59,0,0,0-5.26-4.32,53.27,53.27,0,0,0-6.19-3.33c-15.82,7.66-19.73,23.51-31.66,35.37a62.26,62.26,0,0,1-6.77,6.65c-4.27,3.3-8.06,5.52-13.33,4.49-2.64-.51-4.27-2.47-6.1-4.24-16.08-33.59,9.61-65.55,34.73-86.22C403.25,85.45,407.44,83.51,409.9,84.38Z"/><path class="cls-2" d="M342.67,107c-.73,4.14-2.9,8.62-7.63,7.87-3.88-.62-5.91-3.91-7.94-6.85a19.62,19.62,0,0,1-2.59-6.29c-1-4.11-.94-8.83.86-12.37,2.14-4.17,5.76-5.15,9.63-5.91s5.85,1.16,6.68,4.44a50.61,50.61,0,0,1,1.26,9.78A41.43,41.43,0,0,1,342.67,107Z"/><path class="cls-3" d="M550.18,190c4.82-22,17.45-46.09,29.66-66.79,5.32-9,12.36-19.34,18.27-28.41a20.72,20.72,0,0,0,3.34-14.56c-1.12-8-2.1-16.23-5-23.9-1.57-4.18-3.54-5.18-7.28-1.71a147.9,147.9,0,0,1-25.11,18.25c-5.45,3.15-11.52,3.69-15-1.21-3-4.36-4.62-8.61-3-13.85,6.08-19.18,21-28.81,41-27.74a11.13,11.13,0,0,0,5.17-1.18c3.69-1.42,7.18-3.13,11.08-3.07,7,.1,11,2,13.72,8.6s3.3,14,4.16,21c.19,1.56-.59,3.94,1.25,4.48,2.41.7,3.09-1.07,4.81-3.25C640.18,40.32,655.52,22.92,670.83,10,678.3,3.72,683.56-.87,691.55.14c5,.63,4.61,2.22,4.51,7-.2,9.12-8.51,14.72-16.44,20.17C660.52,40.41,643,60.65,629.33,77.8c-6.7,8.43-8.53,14.11-10.13,22.31-6.29,32.19-11.74,63.87-21.58,94.7-5,15.66-16.45,23.29-30.26,30.21-7.28,3.65-15.06-.69-16.93-8.74C548,205.89,547.38,202.76,550.18,190Zm50.38-40c1.9-6.81,2-13.67,3-20.68.16-1.07.77-2.21-.07-3.24-.26,1-.54,1.92-.81,2.88-.39,1.34-.79,2.69-1.18,4a32,32,0,0,0-.13-4.16c-.27-2.06,1-5.06-1.58-5.86-2.9-.91-3.93,2.16-5.1,4.17-3.22,5.6-6.48,10.81-9.27,16.64-7.63,15.91-13,31.27-13.47,49.11-.05,2-.32,4.51,1.84,5.42s3.5-1.45,4.64-3A133.79,133.79,0,0,0,600.56,150Zm6-18.06a2.32,2.32,0,0,0,.38.07c-1.2,7.08-2.35,14-3.52,21.19-.15.91-.56,2,.36,2.72a14,14,0,0,0,1.33-2.58,224.63,224.63,0,0,0,6.71-41.7c.06-.82.57-2.26-1-2.21-.23,0-.73,1.31-.85,2C608.93,118.1,607.67,125.15,606.57,131.92Z"/><path class="cls-3" d="M221.85,151.75c.85-5.85,2.09-11.71,2.89-17.61.24-1.72.91-4.1-1.3-4.73-1.78-.51-2.44,1.75-3.28,3.05-9,14-18.19,27.67-28.74,40.71-11.27,13.94-24,25.46-39.62,34.38a14.87,14.87,0,0,1-1.68.89c-22.09,9.05-34,2.5-39.17-20.22-6.13-27,.11-51.48,10.9-76,5.59-12.71,10.45-25.79,19.86-36.41,8.12-9.17,17.39-16.75,29.94-18.86s23.44,4,28.13,16c.66,1.68,1.22,3.43-.94,4.65a4.78,4.78,0,0,1-4.89.22c-2.66-1.32-5.44-3-8.36-3.85-11.25-3.07-21.23-2.51-30.11,5.71-26,24.07-37,54.66-35.38,89.81.32,6.71,2.31,13.61,7.19,18.42,7,6.84,13.51,8.68,22.67,4.32,12.79-6.1,23.38-15.58,33-26.07a322.48,322.48,0,0,0,35.93-47.36c7.11-11.32,11.21-24,14.81-36.85,2.57-9.25,7.27-14.13,17.2-14.77,4-.25,5.69,1.65,5.49,6.22-.33,7.4-3.53,14.8-6.15,22-7.43,20.51-12.63,41.62-13.69,63.41-.21,4.34-2,10.1,2.82,12.17,3.39,1.44,5.57-4.3,8.32-6.91,11.45-10.88,23.14-15.87,39-10.58,3.22,1.08,4.86-.45,6.79-2.52,5.32-5.67,10.31-11.11,16.46-15.72,2.09-1.57,4.23-2.71,6.6-1.52s2.71,3.36,2.48,5.76c-1.42,14.8-7.85,24.53-19.67,33.26-1.86,1.37-3.84,2.47-5.6,3.73-6.61,4.74-10.78,4.88-17.92,1.07-1.54-.82-3.05-2-4.75-2.82-4.38-2.13-7.5-1.92-10.46,2.28-6,8.45-13.86,13.95-22.7,19.3-5.84,3.53-12.28,1.33-15.29-4.82a33.78,33.78,0,0,1-3.51-17.22C219.56,166.85,220.76,159.22,221.85,151.75Zm-108.35-.64c-1,6.79-1.78,13.49-1.35,20.37a32.38,32.38,0,0,0,6.62,18.06c.56.76,1.19,1.89,2.35,1.11.24-.17,0-1.45-.3-2.13-4.53-11.94-4.74-23.92-4.59-36.71,0-4,1.88-7.66,0-11.55C114.25,143.71,114.34,147.3,113.5,151.11Z"/><path class="cls-3" d="M403.9,78.38c5.7,2,9.43,9.69,5,14.37-15.41,8.45-23.3,22.35-32.57,36.68,4,.41,6-1.93,9-4.18,9-11.49,14.17-23.45,28.88-28.35a25.82,25.82,0,0,1,6.77-1c6-.29,11.15,2.28,16,5.28s6.69,2.94,10.33-1.92A49.65,49.65,0,0,1,468,83c3.46-1.45,7.56-3.11,11-2.28,8.92,2.17,15.3-2.12,22.45-5.81,10.2-5.27,20.25-9.51,31.14-10.77,8.2-1,10.3,2.53,9.81,9.71,0,.55-.32,1.54-.63,1.61-6.22,1.28-7.82,6.17-14.87,6.45-11.67.46-21.08,5.84-29.14,14.58-5.43,5.89-12,8.44-18.06,13.81-2.53,2.24-8.09-.82-9.32-4-.64-1.64-.78-4-3.09-3.92s-3,2.23-3.91,4a53.94,53.94,0,0,0-3.16,7.18c-1,2.55-1.16,4.72-1.89,7.51-1,3.71-.61,5.58-5.32,7.39-9.57,3.68-12.91,13.07-23.65,3.62a42.59,42.59,0,0,0-5.26-4.32,53.27,53.27,0,0,0-6.19-3.33c-15.82,7.66-19.73,23.51-31.66,35.37a62.26,62.26,0,0,1-6.77,6.65c-4.27,3.3-8.06,5.52-13.33,4.49-2.64-.51-4.27-2.47-6.1-4.24-16.08-33.59,9.61-65.55,34.73-86.22C397.25,79.45,401.44,77.51,403.9,78.38Z"/><path class="cls-3" d="M336.67,101c-.73,4.14-2.9,8.62-7.63,7.87-3.88-.62-5.91-3.91-7.94-6.85a19.62,19.62,0,0,1-2.59-6.29c-1-4.11-.94-8.83.86-12.37,2.14-4.17,5.76-5.15,9.63-5.91s5.85,1.16,6.68,4.44a50.61,50.61,0,0,1,1.26,9.78A41.43,41.43,0,0,1,336.67,101Z"/></g></g></svg>