<svg xmlns="http://www.w3.org/2000/svg" viewBox="0 0 83.44 83.44"><defs><style>.cls-1{fill:#3872c6;}.cls-2,.cls-3,.cls-4{fill:none;}.cls-2{stroke:#376cb5;stroke-miterlimit:10;}.cls-3{stroke:#3872c6;stroke-linecap:round;stroke-linejoin:bevel;}</style></defs><title>icon_white</title><g id="圖層_2" data-name="圖層 2"><g id="圖層_2-2" data-name="圖層 2"><path class="cls-1" d="M70.78,43.47,58.49,61l5.14.17A1.36,1.36,0,0,1,65,62.84L61.14,78.49,73.65,59.41a1.11,1.11,0,0,0-.84-1.71l-2.93-.24a1.35,1.35,0,0,1-1.22-1.57Z"/><polygon class="cls-2" points="16.31 4.53 16.31 62.67 54.9 82.41 54.9 14.13 16.31 4.53"/><path class="cls-3" d="M27.18,1.53c7,1.33,38,6.77,38,6.77V39.14"/><path class="cls-3" d="M17.18,3.17S16.08,0,23.54,1"/><polyline class="cls-2" points="25.03 29.21 22.04 32.95 25.03 36.68 22.04 40.42 25.03 44.16 22.04 47.89 25.03 51.63 22.04 55.36 25.03 59.1 22.04 62.84 25.03 66.58"/><polyline class="cls-2" points="20.55 29.69 17.65 33.3 20.55 36.91 17.65 40.53 20.55 44.14 17.65 47.75 20.55 51.37 17.65 54.98 20.55 58.59 17.65 62.22 20.55 65.83"/><rect class="cls-4" width="83.44" height="83.44"/></g></g></svg>